<svg version="1.2" xmlns="http://www.w3.org/2000/svg" viewBox="0 0 800 700" width="800" height="700">
	<title>BokhandelLogo</title>
	<style>
		.s0 { fill: #ffffff;stroke: #37353e;paint-order:stroke fill markers;stroke-linejoin: round;stroke-width: 16 } 
		.s1 { fill: #37353e } 
		.s2 { fill: #a6c7be;stroke: #000000;paint-order:stroke fill markers;stroke-linejoin: round;stroke-width: 20 } 
		.s3 { fill: #000000 } 
		.s4 { fill: #be441e;stroke: #37353e;paint-order:stroke fill markers;stroke-linejoin: round;stroke-width: 8 } 
	</style>
	<path id="skull" class="s0" d="m431.5 480.7l-90.5 0.1l-28-85.1l73.2-52.7l73.3 52.6zm47.4-155.6c0.2 48.8-40.6 88.3-91.2 88.3c-50.6 0.1-91.6-39.3-91.8-88.1c-0.1-48.8 40.7-88.3 91.3-88.4c50.6 0 91.6 39.4 91.7 88.2z" />
	<path id="mouth" class="s1" d="m344 442.3v-6.6h86v6.6zm9.9-20.3h5.6v33h-5.6zm65.1 0h5.6l-0.4 33l-5.5-0.1zm-45.1 0.1l5.6-0.1l0.4 33l-5.6 0.1zm21.9-0.1h5.6v33h-5.6z" />
	<path id="nose" class="s1" d="m375.2 395.5l12.6-29.3l11.4 29.9z" />
	<path id="glasses" class="s2" d="m340.5 370c-14.7 0-26.5-14.1-26.5-31.5c0-17.4 11.8-31.5 26.5-31.5c14.7 0 26.5 14.1 26.5 31.5c0 17.4-11.8 31.5-26.5 31.5zm93 0c-14.7 0-26.5-14.1-26.5-31.5c0-17.4 11.8-31.5 26.5-31.5c14.7 0 26.5 14.1 26.5 31.5c0 17.4-11.8 31.5-26.5 31.5z" />
	<path id="glasses nose" class="s3" d="m371 347.4v-7.4h31.3v7.4z" />
	<path id="bowtie" class="s4" d="m434.5 545.2l-47.2-20.3l47.4-20.8zm-93.9-41.4l46.8 21.7l-47.8 19.4z" />
	<path id="Bookshop" fill="#ffffff" aria-label="Bookshop"  d="m127.4 617.22c0 0-9.1-3.92-18.16-7.97c-9.01-4.2-17.97-8.53-17.97-8.53c0 0 2.16-4.39 5.4-10.96c1.62-3.29 3.51-7.13 5.53-11.24c2.02-4.11 4.18-8.49 6.34-12.88c2.16-4.38 4.32-8.77 6.35-12.88c2.02-4.11 3.91-7.95 5.53-11.23c3.24-6.58 5.4-10.97 5.4-10.97c0 0 7.15 3.47 14.32 6.83c7.21 3.26 14.46 6.42 14.46 6.42c5.03 2.13 9.3 4.39 12.8 6.79c3.52 2.38 6.28 4.92 8.28 7.64c2.02 2.7 3.25 5.54 3.67 8.53c0.43 2.99 0.06 6.14-1.15 9.43c-1.31 3.6-3.58 6.38-6.82 8.31c-3.25 1.89-7.12 2.7-11.6 2.43c4.21 2.7 7.11 5.95 8.7 9.78c1.65 3.85 1.74 7.84 0.25 11.98c-1.28 3.54-3.11 6.39-5.52 8.55c-2.41 2.15-5.4 3.59-8.96 4.32c-3.57 0.72-7.61 0.73-12.09 0.03c-4.49-0.73-9.41-2.19-14.76-4.38zm13.78-31.14c0 0-16.76-7.34-16.76-7.34c0 0-2.19 4.81-4.37 9.61c-2.19 4.8-4.37 9.61-4.37 9.61c0 0 16.18 7.09 16.18 7.09c4.47 1.88 8.3 2.48 11.46 1.83c3.21-0.68 5.39-2.51 6.57-5.47c1.32-3.33 1.24-6.27-0.22-8.81c-1.45-2.54-4.28-4.71-8.49-6.52zm-3.9-35.65c0 0-2.04 4.49-4.07 8.97c-2.04 4.49-4.08 8.98-4.08 8.98c0 0 13.28 5.85 13.28 5.85c4.58 1.86 8.32 2.49 11.21 1.92c2.88-0.58 4.9-2.35 6.08-5.29c1.32-3.29 1.12-6.11-0.58-8.46c-1.63-2.37-4.85-4.56-9.67-6.6c0 0-12.17-5.37-12.17-5.37zm43.57 56.27c0 0 0.22-0.66 0.22-0.66c1.87-5.46 4.81-9.88 8.8-13.3c3.96-3.44 8.66-5.57 14.12-6.42c5.46-0.89 11.3-0.43 17.53 1.38c4.44 1.25 8.32 2.93 11.65 5.05c3.35 2.11 6.15 4.68 8.42 7.71c2.31 3.03 3.91 6.32 4.78 9.87c0.89 3.55 1.05 7.38 0.48 11.47c0 0-0.76 3.9-0.76 3.9c-1 4.35-2.65 8.09-4.97 11.23c-2.34 3.13-5.36 5.65-9.07 7.53c-3.72 1.85-7.83 2.9-12.32 3.13c-4.5 0.2-9.36-0.43-14.56-1.89c-5.2-1.5-9.68-3.53-13.42-6.07c-3.72-2.56-6.7-5.62-8.93-9.17c-2.18-3.54-3.43-7.3-3.76-11.26c-0.31-3.96 0.29-8.13 1.79-12.5zm18.14 6.36c-1.63 5.26-1.63 9.69 0.01 13.26c1.68 3.53 4.88 5.99 9.59 7.34c4.59 1.29 8.55 0.89 11.86-1.19c3.31-2.12 5.75-6.26 7.34-12.4c1.36-5.23 1.17-9.61-0.54-13.13c-1.69-3.53-4.74-5.91-9.17-7.15c-4.38-1.26-8.18-0.84-11.44 1.28c-3.27 2.08-5.82 6.07-7.65 11.99zm55.77 14.12c0 0 0.15-0.68 0.15-0.68c1.21-5.64 3.59-10.38 7.14-14.25c3.5-3.88 7.89-6.56 13.18-8.06c5.29-1.54 11.1-1.77 17.46-0.71c4.53 0.71 8.56 1.92 12.09 3.63c3.56 1.7 6.62 3.92 9.22 6.66c2.63 2.74 4.59 5.81 5.87 9.24c1.29 3.42 1.9 7.2 1.8 11.33c0 0-0.29 3.97-0.29 3.97c-0.48 4.43-1.68 8.34-3.61 11.73c-1.95 3.39-4.64 6.24-8.08 8.55c-3.47 2.28-7.41 3.8-11.81 4.56c-4.42 0.73-9.3 0.68-14.61-0.15c-5.31-0.87-9.96-2.35-13.94-4.43c-3.97-2.1-7.26-4.79-9.87-8.04c-2.56-3.25-4.23-6.83-5.01-10.73c-0.77-3.89-0.66-8.1 0.31-12.62zm18.63 4.15c-1 5.42-0.49 9.81 1.55 13.16c2.06 3.31 5.51 5.37 10.31 6.15c4.68 0.74 8.55-0.13 11.58-2.58c3.02-2.51 4.95-6.9 5.81-13.18c0.74-5.36 0.04-9.68-2.06-12.98c-2.08-3.31-5.37-5.3-9.88-6.01c-4.47-0.74-8.18 0.14-11.15 2.63c-2.98 2.45-5.04 6.72-6.16 12.81zm103.1 39.01c0 0-4.61-5.94-9.13-11.92c-4.44-6-8.79-12.03-8.79-12.03c0 0-7.22 5.2-7.22 5.2c0 0-0.26 4.42-0.53 8.84c-0.26 4.43-0.53 8.85-0.53 8.85c0 0-19.79-1.47-19.79-1.47c0 0 0.46-5.14 1.15-12.84c0.34-3.86 0.75-8.35 1.18-13.16c0.43-4.82 0.88-9.96 1.34-15.09c0.46-5.14 0.92-10.27 1.35-15.09c0.43-4.81 0.83-9.31 1.18-13.16c0.68-7.7 1.14-12.84 1.14-12.84c0 0 17.38 1.3 17.38 1.3c0 0-0.17 2.85-0.42 7.13c-0.26 4.27-0.6 9.98-0.94 15.68c-0.34 5.7-0.69 11.41-0.94 15.68c-0.26 4.28-0.43 7.13-0.43 7.13c0 0 3.84-3.65 3.84-3.65c0 0 4.67-4.13 9.28-8.3c4.54-4.2 9.03-8.44 9.03-8.44c0 0 5.44 0.12 10.89 0.19c5.44 0.03 10.88 0 10.88 0c0 0-6.14 6.08-12.39 12.1c-6.38 5.96-12.88 11.85-12.88 11.85c0 0 1.67 2.17 4.2 5.41c2.56 3.23 6.01 7.53 9.5 11.81c3.54 4.26 7.12 8.5 9.84 11.66c2.75 3.16 4.59 5.26 4.59 5.26c0 0-5.7 0.04-11.39 0.04c-5.7-0.04-11.39-0.14-11.39-0.14zm67.89-18.08c-0.15-1.89-1.45-3.28-3.88-4.17c-2.38-0.93-6.16-1.66-11.33-2.2c-4.3-0.48-8.06-1.21-11.29-2.17c-3.22-0.97-5.91-2.16-8.07-3.56c-4.28-2.83-6.46-6.46-6.54-10.88c-0.1-5.16 2.33-9.51 7.26-13.08c2.46-1.82 5.31-3.23 8.55-4.24c3.22-1.03 6.85-1.66 10.87-1.9c4.29-0.29 8.19-0.14 11.69 0.46c3.5 0.57 6.63 1.6 9.37 3.08c5.56 2.93 8.67 7.13 9.27 12.65c0 0-18.58 1.76-18.58 1.76c-0.18-2.21-1.18-3.96-2.99-5.26c-1.81-1.34-4.52-1.88-8.12-1.64c-3.1 0.19-5.47 0.91-7.11 2.18c-1.64 1.27-2.42 2.81-2.34 4.64c0.09 1.71 1.12 3.06 3.12 4.03c2.04 0.93 5.42 1.65 10.15 2.14c4.73 0.41 8.75 0.96 12.04 1.65c5.12 1.05 9.06 2.73 11.83 5.07c2.78 2.32 4.39 5.32 4.79 9.01c0.58 5.26-1.81 9.84-7.22 13.7c-2.73 1.9-5.93 3.41-9.6 4.54c-3.68 1.11-7.82 1.82-12.42 2.13c-6.22 0.37-11.8-0.21-16.71-1.73c-4.85-1.58-8.67-3.85-11.46-6.79c-2.76-2.99-4.16-6.24-4.22-9.75c0 0 18.29-0.55 18.29-0.55c0.29 2.75 1.66 4.8 4.11 6.15c2.46 1.35 5.69 1.9 9.7 1.66c3.74-0.25 6.51-1.01 8.31-2.26c1.84-1.29 2.68-2.85 2.53-4.67zm39.51-71.59c0 0 1.2 7.59 2.4 15.17c1.2 7.59 2.4 15.18 2.4 15.18c2.01-2.83 4.41-5.1 7.2-6.83c2.78-1.73 5.95-2.93 9.54-3.6c7.24-1.41 13.07-0.74 17.52 2.06c2.24 1.38 4.14 3.31 5.69 5.77c1.56 2.47 2.78 5.48 3.64 9.04c0 0 0.51 2.27 1.28 5.67c0.77 3.4 1.8 7.94 2.83 12.48c1.03 4.54 2.06 9.07 2.83 12.48c0.77 3.4 1.28 5.67 1.28 5.67c0 0-19.5 4.11-19.5 4.11c0 0-0.44-2.25-1.11-5.64c-0.66-3.38-1.54-7.9-2.43-12.41c-0.88-4.51-1.76-9.03-2.42-12.41c-0.67-3.39-1.11-5.64-1.11-5.64c-0.64-3.27-1.96-5.51-3.94-6.73c-1.99-1.27-4.93-1.54-8.85-0.83c-5.35 0.92-8.95 3.3-10.81 7.15c0 0 0.4 2.55 1.01 6.38c0.61 3.82 1.41 8.92 2.22 14.02c0.81 5.1 1.62 10.2 2.22 14.02c0.61 3.83 1.01 6.38 1.01 6.38c0 0-19.68 2.82-19.68 2.82c0 0-0.65-5.12-1.64-12.79c-0.49-3.84-1.07-8.31-1.68-13.11c-0.62-4.79-1.27-9.9-1.93-15.02c-0.66-5.11-1.31-10.23-1.93-15.02c-0.61-4.8-1.19-9.27-1.68-13.11c-0.99-7.67-1.64-12.78-1.64-12.78c0 0 17.28-2.48 17.28-2.48zm61.36 42.28c0 0-0.17-0.68-0.17-0.68c-1.37-5.59-1.29-10.91 0.22-15.93c1.46-5.03 4.26-9.36 8.37-13.02c4.12-3.69 9.27-6.45 15.5-8.29c4.42-1.34 8.6-2.03 12.57-2.03c3.97-0.04 7.73 0.6 11.29 1.93c3.6 1.3 6.73 3.2 9.4 5.72c2.68 2.5 4.88 5.63 6.61 9.39c0 0 1.47 3.69 1.47 3.69c1.5 4.2 2.13 8.24 1.85 12.14c-0.29 3.9-1.49 7.66-3.61 11.25c-2.16 3.58-5.08 6.68-8.75 9.3c-3.7 2.6-8.14 4.7-13.32 6.28c-5.19 1.54-10.05 2.25-14.57 2.12c-4.5-0.15-8.65-1.13-12.43-2.91c-3.73-1.81-6.8-4.3-9.2-7.47c-2.39-3.17-4.13-7-5.23-11.49zm18.63-4.41c1.47 5.31 3.85 9.04 7.15 11.16c3.32 2.07 7.34 2.41 12.04 1.02c4.56-1.4 7.69-3.87 9.37-7.41c1.65-3.58 1.48-8.38-0.49-14.41c-1.68-5.14-4.2-8.72-7.56-10.76c-3.33-2.06-7.19-2.42-11.59-1.07c-4.38 1.3-7.35 3.71-8.95 7.25c-1.63 3.51-1.62 8.25 0.03 14.22zm117.23-45.99c0 0 0.36 0.72 0.36 0.72c2 4 3.23 7.9 3.66 11.69c0.42 3.8 0.04 7.5-1.14 11.09c-1.2 3.56-3.13 6.71-5.79 9.46c-2.68 2.73-6.08 5.03-10.2 6.89c-7.03 3.09-13.52 3.65-19.42 1.7c0 0 2.63 6.32 5.25 12.65c2.62 6.32 5.25 12.65 5.25 12.65c0 0-19.37 7.7-19.37 7.7c0 0-1.79-4.7-4.47-11.75c-1.34-3.53-2.9-7.64-4.58-12.04c-1.68-4.41-3.46-9.11-5.25-13.81c-1.79-4.7-3.58-9.4-5.25-13.81c-1.68-4.4-3.24-8.52-4.58-12.04c-2.69-7.05-4.47-11.75-4.47-11.75c0 0 15.9-6.31 15.9-6.31c0 0 2.76 5.02 2.76 5.02c1.22-2.95 2.95-5.51 5.21-7.69c2.23-2.2 5-4.02 8.29-5.48c3.89-1.76 7.62-2.74 11.2-2.95c3.58-0.23 7.03 0.33 10.35 1.66c3.33 1.33 6.35 3.35 9.07 6.08c2.73 2.72 5.14 6.16 7.22 10.32zm-17.66 8.16c-2.27-4.91-5.11-8.19-8.49-9.87c-3.33-1.71-7.01-1.67-11.07 0.13c-5.43 2.34-8.45 5.64-9.08 9.94c0 0 2.28 5.49 4.56 10.99c2.28 5.49 4.56 10.99 4.56 10.99c3.7 2.6 8.44 2.68 14.17 0.2c4.34-1.92 6.97-4.77 7.87-8.51c0.88-3.74 0.03-8.37-2.52-13.87z" />
	<path id="Creepy" fill="#ffffff" aria-label="Creepy"  d="m244.08 173.82c0 0 18.61-5.87 18.61-5.87c0.93 4.51 1.02 8.76 0.29 12.74c-0.7 3.99-2.21 7.72-4.51 11.21c-2.24 3.5-5.14 6.55-8.68 9.16c-3.52 2.64-7.7 4.88-12.56 6.73c-5.31 2.1-10.38 3.19-15.26 3.26c-4.9 0.14-9.63-0.75-14.23-2.68c-4.63-1.91-8.82-4.75-12.58-8.55c-3.79-3.78-7.12-8.54-9.97-14.3c0 0-2.31-4.68-2.31-4.68c-1.81-3.68-3.13-7.33-3.95-10.95c-0.81-3.63-1.1-7.23-0.87-10.81c0.26-3.59 1.03-7.01 2.33-10.26c1.33-3.24 3.19-6.31 5.58-9.19c2.43-2.9 5.3-5.51 8.6-7.81c3.33-2.28 7.09-4.24 11.27-5.88c5.8-2.2 11.28-3.5 16.41-3.92c5.12-0.37 9.87 0.14 14.23 1.5c4.32 1.4 8.03 3.57 11.13 6.5c3.06 2.95 5.52 6.64 7.39 11.06c0 0-19.78 6.23-19.78 6.23c-2.26-5.05-5.3-8.22-9.15-9.48c-3.83-1.29-8.86-0.78-15.03 1.56c-6.69 2.64-10.87 6.64-12.52 11.91c-0.79 2.61-0.94 5.58-0.46 8.92c0.49 3.34 1.6 7.03 3.33 11.09c0 0 2.59 5.9 2.59 5.9c1.85 4.23 3.81 7.72 5.88 10.5c2.05 2.78 4.19 4.85 6.44 6.2c4.48 2.73 9.71 2.88 15.74 0.49c5.47-2.07 9.14-4.73 11.01-8.01c1.95-3.33 2.3-7.51 1.03-12.57zm62.47-52.21c0 0 2.47 16.1 2.47 16.1c-2.67 0.14-4.99 0.4-6.98 0.77c-7.24 1.41-11.52 4.51-12.83 9.23c0 0 0.56 2.53 1.39 6.33c0.83 3.8 1.94 8.87 3.05 13.93c1.11 5.07 2.22 10.14 3.05 13.93c0.83 3.8 1.38 6.34 1.38 6.34c0 0-17.02 4.1-17.02 4.1c0 0-1.01-3.83-2.53-9.58c-0.75-2.87-1.64-6.22-2.58-9.82c-0.95-3.59-1.96-7.42-2.97-11.25c-1.01-3.83-2.02-7.67-2.97-11.26c-0.94-3.59-1.83-6.94-2.58-9.82c-1.52-5.74-2.53-9.58-2.53-9.58c0 0 18.53-4.49 18.53-4.49c0 0 2.17 7.27 2.17 7.27c2.69-6.54 7.59-10.51 14.63-11.86c2.2-0.4 4.31-0.51 6.32-0.34zm47.54 59.49c-4.75 0.41-9.13 0.11-13.16-0.89c-4.06-0.97-7.78-2.66-11.19-5.08c-3.43-2.4-6.2-5.36-8.3-8.88c-2.13-3.51-3.58-7.61-4.33-12.3c0 0-0.25-1.62-0.25-1.62c-1-6.29-0.51-12.12 1.52-17.48c2.09-5.4 5.58-9.79 10.48-13.14c5-3.34 10.95-5.34 17.79-5.96c5.13-0.41 9.76-0.04 13.87 1.08c4.09 1.16 7.64 3.06 10.64 5.69c2.99 2.64 5.24 5.89 6.76 9.74c1.49 3.85 2.27 8.29 2.34 13.3c0 0 0.11 6.92 0.11 6.92c0 0-2.76 0.05-6.89 0.16c-4.13 0.14-9.64 0.4-15.15 0.72c-5.5 0.39-10.99 0.85-15.11 1.24c-4.12 0.43-6.86 0.74-6.86 0.74c1.06 4.05 3.19 7.15 6.37 9.32c3.19 2.2 7 3.1 11.45 2.74c6.89-0.47 12.17-3.13 15.89-8.02c0 0 9.12 9.06 9.12 9.06c-2.59 3.65-6.08 6.56-10.49 8.76c-4.36 2.21-9.22 3.51-14.61 3.9zm-6.36-51.68c-3.86 0.34-6.89 1.77-9.07 4.27c-2.11 2.5-3.25 5.89-3.43 10.16c0 0 6.57-0.71 13.15-1.32c6.58-0.51 13.17-0.93 13.17-0.93c0 0-0.07-1.35-0.07-1.35c-0.3-3.73-1.62-6.55-3.98-8.44c-2.37-1.92-5.63-2.72-9.77-2.39zm72.77 51.72c-4.75-0.35-9.03-1.34-12.84-2.98c-3.85-1.6-7.25-3.86-10.22-6.8c-2.99-2.91-5.25-6.27-6.76-10.08c-1.54-3.81-2.31-8.09-2.3-12.83c0 0 0-1.64 0-1.64c0.02-6.37 1.44-12.05 4.3-17.02c2.91-5 7.05-8.77 12.41-11.3c5.46-2.5 11.64-3.52 18.49-3.05c5.14 0.42 9.65 1.52 13.54 3.29c3.85 1.8 7.06 4.24 9.6 7.31c2.54 3.09 4.25 6.66 5.13 10.69c0.86 4.04 0.92 8.55 0.2 13.51c0 0-1.01 6.85-1.01 6.85c0 0-2.73-0.4-6.84-0.95c-4.11-0.52-9.59-1.14-15.08-1.7c-5.5-0.5-11-0.92-15.12-1.19c-4.13-0.23-6.89-0.37-6.89-0.37c0.41 4.17 2.01 7.57 4.8 10.23c2.8 2.67 6.41 4.17 10.87 4.52c6.88 0.63 12.51-1.14 16.97-5.38c0 0 7.58 10.4 7.58 10.4c-3.14 3.19-7.06 5.51-11.77 6.98c-4.66 1.49-9.67 1.99-15.06 1.51zm1.97-52.03c-3.86-0.28-7.08 0.65-9.63 2.77c-2.48 2.13-4.15 5.3-5 9.48c0 0 6.59 0.35 13.18 0.8c6.58 0.54 13.16 1.18 13.16 1.18c0 0 0.14-1.34 0.14-1.34c0.3-3.74-0.56-6.73-2.58-8.97c-2.04-2.28-5.13-3.59-9.27-3.92zm101.67 39.02c0 0-0.27 0.83-0.27 0.83c-1.5 4.65-3.42 8.65-5.77 12.02c-2.32 3.37-5.05 6.12-8.17 8.24c-3.07 2.14-6.3 3.48-9.69 4.04c-3.38 0.58-6.94 0.37-10.71-0.61c-6.42-1.58-11.13-4.95-14.19-10.18c0 0-1.56 7.3-3.13 14.61c-1.56 7.3-3.13 14.61-3.13 14.61c0 0-16.15-3.11-16.15-3.11c0 0 0.92-5.41 2.31-13.52c0.69-4.06 1.5-8.79 2.36-13.86c0.87-5.07 1.79-10.47 2.72-15.88c0.92-5.41 1.84-10.82 2.71-15.89c0.86-5.07 1.67-9.8 2.36-13.85c1.39-8.12 2.31-13.52 2.31-13.52c0 0 18.34 3.5 18.34 3.5c0 0-0.6 6.22-0.6 6.22c2.87-1.9 6.01-3.1 9.38-3.59c3.38-0.47 7-0.23 10.82 0.73c4.53 1.17 8.35 2.95 11.45 5.32c3.08 2.38 5.43 5.34 7.05 8.84c1.59 3.51 2.38 7.36 2.37 11.54c-0.02 4.17-0.82 8.67-2.37 13.51zm-18.04-5.75c1.56-5.69 1.61-10.4 0.11-14.12c-1.49-3.71-4.49-6.13-8.98-7.25c-6-1.41-10.57-0.36-13.67 3.13c0 0-1.36 6.34-2.72 12.69c-1.36 6.34-2.72 12.69-2.72 12.69c1.29 4.56 4.67 7.46 10.18 8.76c4.18 1.04 7.73 0.24 10.68-2.4c2.98-2.62 5.36-7.12 7.12-13.5zm52.27-15.49c0 0-0.06 2.62-0.16 6.54c-0.13 3.92-0.33 9.14-0.56 14.36c-0.27 5.2-0.57 10.4-0.82 14.29c-0.27 3.89-0.47 6.48-0.47 6.48c0 0 1.71-1.96 4.27-4.89c2.59-2.92 6.06-6.79 9.57-10.65c3.54-3.83 7.11-7.64 9.8-10.49c2.72-2.83 4.54-4.72 4.54-4.72c0 0 5 2.3 9.98 4.66c4.95 2.41 9.89 4.89 9.89 4.89c0 0-3.79 3.21-9.42 8.08c-2.78 2.45-6.01 5.32-9.45 8.43c-3.41 3.12-7.01 6.47-10.59 9.85c-3.54 3.4-7.05 6.82-10.32 10.04c-3.23 3.25-6.23 6.3-8.78 8.92c-5.04 5.29-8.36 8.84-8.36 8.84c0 0-2.64 2.5-2.64 2.5c-3.37 3.07-6.88 4.97-10.53 5.71c-3.64 0.78-7.43 0.42-11.42-1.09c-2.26-0.83-4.44-2.01-6.54-3.54c0 0 4.24-12.11 4.24-12.11c0 0 2.44 0.92 2.44 0.92c3.06 1.11 5.49 1.49 7.32 1.13c1.88-0.33 3.65-1.39 5.33-3.16c0 0 3.83-4.11 3.83-4.11c0 0 0.09-4.23 0.18-10.58c0.03-3.19 0.03-6.9 0.02-10.89c-0.04-3.99-0.11-8.25-0.21-12.51c-0.12-4.27-0.27-8.54-0.44-12.55c-0.19-4.01-0.39-7.76-0.57-10.98c-0.43-6.43-0.74-10.72-0.74-10.72c0 0 5.17 1.74 10.33 3.55c5.15 1.87 10.28 3.8 10.28 3.8z" />
</svg>